<svg xmlns="http://www.w3.org/2000/svg" width="800" height="800" viewBox="0 0 800 800">
  <defs>
    <style>
      .trace { fill: none; stroke: #5a8a5a; stroke-width: 0.8; opacity: 0.4; }
      .node { fill: #5a8a5a; opacity: 0.35; }
      .pad { fill: none; stroke: #5a8a5a; stroke-width: 0.6; opacity: 0.3; }
    </style>
  </defs>
  <!-- Horizontal traces -->
  <line class="trace" x1="0" y1="100" x2="300" y2="100"/>
  <line class="trace" x1="340" y1="100" x2="500" y2="100"/>
  <line class="trace" x1="540" y1="100" x2="800" y2="100"/>
  <line class="trace" x1="0" y1="250" x2="200" y2="250"/>
  <line class="trace" x1="240" y1="250" x2="600" y2="250"/>
  <line class="trace" x1="640" y1="250" x2="800" y2="250"/>
  <line class="trace" x1="0" y1="400" x2="150" y2="400"/>
  <line class="trace" x1="190" y1="400" x2="450" y2="400"/>
  <line class="trace" x1="490" y1="400" x2="800" y2="400"/>
  <line class="trace" x1="0" y1="550" x2="350" y2="550"/>
  <line class="trace" x1="390" y1="550" x2="800" y2="550"/>
  <line class="trace" x1="0" y1="700" x2="250" y2="700"/>
  <line class="trace" x1="290" y1="700" x2="550" y2="700"/>
  <line class="trace" x1="590" y1="700" x2="800" y2="700"/>
  <!-- Vertical traces -->
  <line class="trace" x1="150" y1="0" x2="150" y2="400"/>
  <line class="trace" x1="320" y1="100" x2="320" y2="550"/>
  <line class="trace" x1="500" y1="0" x2="500" y2="250"/>
  <line class="trace" x1="620" y1="250" x2="620" y2="700"/>
  <line class="trace" x1="200" y1="400" x2="200" y2="800"/>
  <line class="trace" x1="470" y1="400" x2="470" y2="800"/>
  <!-- Connector nodes -->
  <circle class="node" cx="320" cy="100" r="4"/>
  <circle class="node" cx="500" cy="100" r="3"/>
  <circle class="node" cx="200" cy="250" r="4"/>
  <circle class="node" cx="620" cy="250" r="3"/>
  <circle class="node" cx="150" cy="400" r="4"/>
  <circle class="node" cx="470" cy="400" r="3"/>
  <circle class="node" cx="320" cy="550" r="4"/>
  <circle class="node" cx="200" cy="700" r="3"/>
  <circle class="node" cx="620" cy="700" r="4"/>
  <!-- IC pads -->
  <rect class="pad" x="290" y="370" width="60" height="60" rx="2"/>
  <rect class="pad" x="440" y="220" width="50" height="50" rx="2"/>
  <rect class="pad" x="130" y="520" width="55" height="55" rx="2"/>
  <rect class="pad" x="560" y="520" width="45" height="45" rx="2"/>
</svg>
